<svg width="312" height="38" viewBox="0 0 312 38" fill="none" xmlns="http://www.w3.org/2000/svg">
<mask id="mask0_401_1244" style="mask-type:alpha" maskUnits="userSpaceOnUse" x="0" y="4" width="28" height="30">
<path d="M8.89428 30.3647C8.89428 32.366 7.27197 33.9883 5.27075 33.9883C3.26953 33.9883 1.64722 32.366 1.64722 30.3647C1.64722 28.3635 3.26953 26.7412 5.27075 26.7412C7.27197 26.7412 8.89428 28.3635 8.89428 30.3647Z" fill="#C4C4C4"/>
<path d="M26.3533 30.3647C26.3533 32.366 24.731 33.9883 22.7297 33.9883C20.7285 33.9883 19.1062 32.366 19.1062 30.3647C19.1062 28.3635 20.7285 26.7412 22.7297 26.7412C24.731 26.7412 26.3533 28.3635 26.3533 30.3647Z" fill="#C4C4C4"/>
<path fill-rule="evenodd" clip-rule="evenodd" d="M25.1913 27.7058C25.4382 27.9345 25.4094 28.3209 25.1508 28.5363C23.7802 29.6779 22.0174 30.3647 20.0941 30.3647H19.7649C19.401 30.3647 19.0998 30.0671 19.1652 29.7091C19.4737 28.0209 20.9522 26.7412 22.7296 26.7412C23.68 26.7412 24.545 27.1071 25.1913 27.7058ZM27.0987 26.1282C26.8986 26.5093 26.3844 26.543 26.0504 26.2717C25.144 25.5354 23.9883 25.0942 22.7296 25.0942C20.0414 25.0942 17.8233 27.1066 17.4996 29.7072C17.4547 30.0682 17.164 30.3647 16.8002 30.3647H11.2C10.8361 30.3647 10.5455 30.0682 10.5006 29.7072C10.1769 27.1066 7.95876 25.0942 5.27059 25.0942C4.0118 25.0942 2.85608 25.5354 1.94969 26.2718C1.61563 26.5431 1.10145 26.5094 0.901402 26.1283C0.325709 25.0317 0 23.7833 0 22.4588V20.8116C0 20.4478 0.294965 20.1528 0.658823 20.1528H27.3412C27.705 20.1528 28 20.4478 28 20.8116V22.4588C28 23.7832 27.6743 25.0316 27.0987 26.1282ZM28 17.8469C28 18.2108 27.705 18.5057 27.3412 18.5057H0.658824C0.294965 18.5057 0 18.2108 0 17.8469V13.894C0 13.5302 0.294965 13.2352 0.658823 13.2352H27.3412C27.705 13.2352 28 13.5302 28 13.894V17.8469ZM7.90588 4.01172C3.883 4.01172 0.561907 7.0164 0.0643695 10.904C0.0168356 11.2754 0.318678 11.5881 0.693122 11.5881H27.3069C27.6813 11.5881 27.9832 11.2754 27.9356 10.904C27.4381 7.0164 24.117 4.01172 20.0941 4.01172H7.90588ZM5.27059 26.7412C7.04795 26.7412 8.52644 28.0209 8.83496 29.7091C8.90037 30.0671 8.59914 30.3647 8.23528 30.3647H7.90588C5.98268 30.3647 4.21987 29.6779 2.84928 28.5364C2.59074 28.321 2.56193 27.9345 2.80878 27.7059C3.45509 27.1072 4.3201 26.7412 5.27059 26.7412Z" fill="#C4C4C4"/>
</mask>
<g mask="url(#mask0_401_1244)">
<rect x="-1.64722" y="1.70605" width="33.6" height="10.8706" fill="url(#paint0_linear_401_1244)"/>
<rect x="-1.64722" y="19.4941" width="33.6" height="16.4706" fill="#FFA833"/>
<rect x="-1.64722" y="12.5767" width="33.6" height="7.24706" rx="3.62353" fill="#F17228"/>
<rect x="-23.0586" y="26.7412" width="31.9529" height="7.24706" fill="#F58D00"/>
<rect x="19.1062" y="26.7412" width="31.9529" height="7.24706" fill="#F58D00"/>
<ellipse cx="8.11249" cy="6.82316" rx="1" ry="0.5" transform="rotate(-20.8548 8.11249 6.82316)" fill="white"/>
<ellipse cx="14" cy="6.5" rx="1" ry="0.5" fill="white"/>
<ellipse cx="19.1176" cy="6.91225" rx="1" ry="0.5" transform="rotate(28.1155 19.1176 6.91225)" fill="white"/>
</g>
<path d="M50.1397 27.2568C51.5293 27.2568 52.6285 26.6553 53.4374 25.4524C54.2462 24.2287 54.6507 22.5384 54.6507 20.3814C54.6507 18.3489 54.2462 16.7623 53.4374 15.6216C52.6285 14.4809 51.5293 13.9105 50.1397 13.9105C48.7501 13.9105 47.6509 14.4809 46.842 15.6216C46.0331 16.7623 45.6287 18.3489 45.6287 20.3814C45.6287 22.5384 46.0331 24.2287 46.842 25.4524C47.6509 26.6553 48.7501 27.2568 50.1397 27.2568ZM56.8284 36.2788C54.6921 36.2788 52.8774 35.7499 51.3841 34.6921C49.8908 33.6551 48.7812 32.3485 48.0553 30.7723C45.8983 30.316 44.1665 29.1856 42.8599 27.3812C41.574 25.5768 40.9311 23.2436 40.9311 20.3814C40.9311 18.1623 41.3148 16.2853 42.0821 14.7505C42.8703 13.195 43.9488 12.0128 45.3176 11.2039C46.7072 10.3743 48.3146 9.95953 50.1397 9.95953C51.9648 9.95953 53.5618 10.3743 54.9307 11.2039C56.3202 12.0128 57.3987 13.195 58.1661 14.7505C58.9542 16.306 59.3483 18.183 59.3483 20.3814C59.3483 23.0984 58.7676 25.3487 57.6061 27.1324C56.4447 28.8953 54.8788 30.0567 52.9085 30.6167C53.3855 31.3219 54.0285 31.83 54.8373 32.1411C55.6669 32.4522 56.5069 32.6078 57.3573 32.6078C57.7928 32.6078 58.1972 32.5663 58.5706 32.4833C58.9646 32.4211 59.3068 32.3485 59.5972 32.2655L60.4061 35.5943C60.0327 35.781 59.535 35.9365 58.9128 36.061C58.3113 36.2062 57.6165 36.2788 56.8284 36.2788ZM66.6466 30.99C64.9666 30.99 63.7429 30.4404 62.9756 29.3412C62.2289 28.2212 61.8556 26.6968 61.8556 24.768V15.186H66.4288V24.1769C66.4288 25.2761 66.5843 26.0435 66.8954 26.479C67.2065 26.8938 67.6939 27.1012 68.3576 27.1012C68.9383 27.1012 69.4257 26.9664 69.8198 26.6968C70.2139 26.4272 70.639 25.9916 71.0953 25.3902V15.186H75.6685V30.6167H71.9353L71.5931 28.4701H71.4998C70.8568 29.2375 70.1516 29.8493 69.3843 30.3056C68.6169 30.7619 67.7043 30.99 66.6466 30.99ZM78.9152 30.6167V15.186H83.4884V30.6167H78.9152ZM81.1862 12.915C80.4188 12.915 79.7966 12.6972 79.3196 12.2617C78.8426 11.8261 78.6041 11.2454 78.6041 10.5195C78.6041 9.79361 78.8426 9.21288 79.3196 8.77734C79.7966 8.3418 80.4188 8.12403 81.1862 8.12403C81.9536 8.12403 82.5758 8.3418 83.0528 8.77734C83.5298 9.21288 83.7683 9.79361 83.7683 10.5195C83.7683 11.2454 83.5298 11.8261 83.0528 12.2617C82.5758 12.6972 81.9536 12.915 81.1862 12.915ZM93.455 30.99C92.024 30.99 90.7277 30.6789 89.5663 30.0567C88.4256 29.4138 87.513 28.4908 86.8286 27.2879C86.1649 26.0642 85.833 24.6021 85.833 22.9014C85.833 21.1799 86.2064 19.7178 86.953 18.5148C87.6997 17.3119 88.6848 16.3993 89.9085 15.7771C91.1321 15.1342 92.4491 14.8127 93.8595 14.8127C94.8135 14.8127 95.6535 14.9683 96.3794 15.2794C97.126 15.5905 97.7897 15.9845 98.3705 16.4616L96.2238 19.417C95.4979 18.8156 94.8032 18.5148 94.1395 18.5148C93.0402 18.5148 92.1588 18.9089 91.4951 19.697C90.8522 20.4851 90.5307 21.5533 90.5307 22.9014C90.5307 24.2287 90.8522 25.2969 91.4951 26.1057C92.1588 26.8938 92.9884 27.2879 93.9839 27.2879C94.4817 27.2879 94.9691 27.1842 95.4461 26.9768C95.9231 26.7487 96.3587 26.479 96.7527 26.1679L98.5571 29.1545C97.7897 29.8182 96.9601 30.2952 96.0683 30.5856C95.1765 30.8552 94.3054 30.99 93.455 30.99ZM100.48 30.6167V8.80845H104.928V21.3148H105.053L109.937 15.186H114.915L109.502 21.5325L115.319 30.6167H110.373L106.888 24.6124L104.928 26.8213V30.6167H100.48Z" fill="#F17228"/>
<path d="M121.895 30.6167V10.3329H128.833C130.243 10.3329 131.509 10.4884 132.629 10.7995C133.748 11.0899 134.64 11.598 135.304 12.3239C135.968 13.0498 136.3 14.0661 136.3 15.3727C136.3 16.2645 136.061 17.146 135.584 18.0171C135.128 18.8674 134.485 19.4481 133.655 19.7592V19.8837C134.692 20.1533 135.553 20.6822 136.237 21.4703C136.942 22.2377 137.295 23.2954 137.295 24.6435C137.295 26.0331 136.942 27.1635 136.237 28.0346C135.532 28.9056 134.588 29.559 133.406 29.9945C132.224 30.4093 130.897 30.6167 129.424 30.6167H121.895ZM126.469 18.4526H128.615C129.735 18.4526 130.544 18.2348 131.042 17.7993C131.56 17.3638 131.82 16.783 131.82 16.0571C131.82 15.269 131.56 14.709 131.042 14.3772C130.523 14.0453 129.725 13.8794 128.646 13.8794H126.469V18.4526ZM126.469 27.0701H129.051C131.56 27.0701 132.815 26.1576 132.815 24.3324C132.815 23.4406 132.504 22.808 131.882 22.4347C131.26 22.0407 130.316 21.8436 129.051 21.8436H126.469V27.0701ZM140.358 30.6167V15.186H144.932V30.6167H140.358ZM142.629 12.915C141.862 12.915 141.24 12.6972 140.763 12.2617C140.286 11.8261 140.047 11.2454 140.047 10.5195C140.047 9.79361 140.286 9.21288 140.763 8.77734C141.24 8.3418 141.862 8.12403 142.629 8.12403C143.397 8.12403 144.019 8.3418 144.496 8.77734C144.973 9.21288 145.212 9.79361 145.212 10.5195C145.212 11.2454 144.973 11.8261 144.496 12.2617C144.019 12.6972 143.397 12.915 142.629 12.915ZM154.898 30.99C152.99 30.99 151.621 30.4404 150.792 29.3412C149.983 28.242 149.578 26.8005 149.578 25.0169V18.7637H147.463V15.3727L149.827 15.186L150.356 11.0795H154.152V15.186H157.854V18.7637H154.152V24.9546C154.152 25.8257 154.328 26.4583 154.681 26.8524C155.054 27.2257 155.541 27.4123 156.143 27.4123C156.392 27.4123 156.64 27.3812 156.889 27.319C157.159 27.2568 157.397 27.1842 157.605 27.1012L158.32 30.43C157.926 30.5545 157.439 30.6789 156.858 30.8034C156.298 30.9278 155.645 30.99 154.898 30.99ZM167.225 30.99C165.753 30.99 164.425 30.6685 163.243 30.0256C162.061 29.3827 161.128 28.4597 160.443 27.2568C159.759 26.0539 159.417 24.6021 159.417 22.9014C159.417 21.2214 159.759 19.78 160.443 18.5771C161.148 17.3741 162.061 16.4512 163.181 15.8082C164.301 15.1446 165.473 14.8127 166.696 14.8127C168.169 14.8127 169.382 15.1446 170.336 15.8082C171.311 16.4512 172.037 17.3326 172.514 18.4526C173.012 19.5518 173.261 20.8066 173.261 22.2169C173.261 22.611 173.24 23.0051 173.198 23.3991C173.157 23.7725 173.115 24.0524 173.074 24.2391H163.834C164.042 25.3591 164.508 26.1887 165.234 26.7279C165.96 27.2464 166.831 27.5057 167.847 27.5057C168.947 27.5057 170.056 27.1635 171.176 26.479L172.701 29.2479C171.912 29.7871 171.031 30.2123 170.056 30.5234C169.081 30.8345 168.138 30.99 167.225 30.99ZM163.803 21.2214H169.372C169.372 20.3711 169.164 19.6763 168.75 19.137C168.356 18.5771 167.702 18.2971 166.79 18.2971C166.085 18.2971 165.452 18.5459 164.892 19.0437C164.332 19.5207 163.969 20.2466 163.803 21.2214ZM180.963 30.99C179.947 30.99 178.899 30.793 177.821 30.3989C176.763 30.0049 175.84 29.4864 175.052 28.8434L177.105 25.9813C177.81 26.4998 178.484 26.9042 179.127 27.1946C179.791 27.4642 180.444 27.599 181.087 27.599C181.772 27.599 182.269 27.4849 182.581 27.2568C182.892 27.0079 183.047 26.6864 183.047 26.2924C183.047 25.9398 182.892 25.6494 182.581 25.4213C182.29 25.1932 181.906 24.9858 181.429 24.7991C180.952 24.5917 180.444 24.3843 179.905 24.1769C179.283 23.928 178.661 23.6169 178.038 23.2436C177.437 22.8703 176.929 22.3932 176.514 21.8125C176.099 21.211 175.892 20.4851 175.892 19.6348C175.892 18.2037 176.431 17.0423 177.51 16.1505C178.609 15.2586 180.04 14.8127 181.803 14.8127C182.985 14.8127 184.022 15.0201 184.914 15.4349C185.826 15.829 186.604 16.2749 187.247 16.7727L185.194 19.5104C184.655 19.0956 184.115 18.7741 183.576 18.5459C183.037 18.3178 182.498 18.2037 181.958 18.2037C180.776 18.2037 180.185 18.6082 180.185 19.417C180.185 19.9148 180.475 20.2985 181.056 20.5681C181.658 20.817 182.352 21.0866 183.141 21.377C183.804 21.6051 184.447 21.9058 185.069 22.2792C185.712 22.6317 186.241 23.1088 186.656 23.7102C187.092 24.291 187.309 25.0583 187.309 26.0124C187.309 27.402 186.77 28.5842 185.692 29.559C184.613 30.513 183.037 30.99 180.963 30.99Z" fill="#FFB30E"/>
<defs>
<linearGradient id="paint0_linear_401_1244" x1="14.9999" y1="3.5" x2="14.9999" y2="21" gradientUnits="userSpaceOnUse">
<stop stop-color="#FFD16D"/>
<stop offset="1" stop-color="#FF7A00"/>
</linearGradient>
</defs>
</svg>
